<mxfile host="app.diagrams.net" agent="Mozilla/5.0 (Windows NT 10.0; Win64; x64) AppleWebKit/537.36 (KHTML, like Gecko) Chrome/131.0.0.0 Safari/537.36 Edg/131.0.0.0" version="25.0.3" pages="3">
  <diagram id="vNbx2mIweXZLFe440dw7" name="Page-3">
    <mxGraphModel dx="1339" dy="815" grid="1" gridSize="10" guides="1" tooltips="1" connect="1" arrows="1" fold="1" page="1" pageScale="1" pageWidth="850" pageHeight="1100" math="0" shadow="0">
      <root>
        <mxCell id="0" />
        <mxCell id="1" parent="0" />
        <mxCell id="Pn1cmBC6gLqoA6BlD7dc-1" value="" style="strokeWidth=1;shadow=0;dashed=0;align=center;html=1;shape=mxgraph.mockup.containers.browserWindow;rSize=0;strokeColor=#666666;strokeColor2=#008cff;strokeColor3=#c4c4c4;mainText=,;recursiveResize=0;" vertex="1" parent="1">
          <mxGeometry x="40" y="120" width="990" height="760" as="geometry" />
        </mxCell>
        <mxCell id="Pn1cmBC6gLqoA6BlD7dc-2" value="Page 1" style="strokeWidth=1;shadow=0;dashed=0;align=center;html=1;shape=mxgraph.mockup.containers.anchor;fontSize=17;fontColor=#666666;align=left;whiteSpace=wrap;" vertex="1" parent="Pn1cmBC6gLqoA6BlD7dc-1">
          <mxGeometry x="60" y="12" width="110" height="26" as="geometry" />
        </mxCell>
        <mxCell id="Pn1cmBC6gLqoA6BlD7dc-3" value="https://www.draw.io" style="strokeWidth=1;shadow=0;dashed=0;align=center;html=1;shape=mxgraph.mockup.containers.anchor;rSize=0;fontSize=17;fontColor=#666666;align=left;" vertex="1" parent="Pn1cmBC6gLqoA6BlD7dc-1">
          <mxGeometry x="130" y="60" width="250" height="26" as="geometry" />
        </mxCell>
        <mxCell id="Pn1cmBC6gLqoA6BlD7dc-6" value="" style="rounded=0;whiteSpace=wrap;html=1;" vertex="1" parent="Pn1cmBC6gLqoA6BlD7dc-1">
          <mxGeometry x="180" y="150" width="641.25" height="460" as="geometry" />
        </mxCell>
        <mxCell id="Pn1cmBC6gLqoA6BlD7dc-7" value="Line 1" style="strokeWidth=1;shadow=0;dashed=0;align=center;html=1;shape=mxgraph.mockup.text.textBox;fontColor=#666666;align=left;fontSize=17;spacingLeft=4;spacingTop=-3;whiteSpace=wrap;strokeColor=#666666;mainText=" vertex="1" parent="Pn1cmBC6gLqoA6BlD7dc-1">
          <mxGeometry x="240" y="210" width="490" height="30" as="geometry" />
        </mxCell>
        <mxCell id="Pn1cmBC6gLqoA6BlD7dc-9" value="Line 1" style="strokeWidth=1;shadow=0;dashed=0;align=center;html=1;shape=mxgraph.mockup.text.textBox;fontColor=#666666;align=left;fontSize=17;spacingLeft=4;spacingTop=-3;whiteSpace=wrap;strokeColor=#666666;mainText=" vertex="1" parent="Pn1cmBC6gLqoA6BlD7dc-1">
          <mxGeometry x="240" y="330" width="490" height="30" as="geometry" />
        </mxCell>
        <mxCell id="Pn1cmBC6gLqoA6BlD7dc-8" value="Line 1" style="strokeWidth=1;shadow=0;dashed=0;align=center;html=1;shape=mxgraph.mockup.text.textBox;fontColor=#666666;align=left;fontSize=17;spacingLeft=4;spacingTop=-3;whiteSpace=wrap;strokeColor=#666666;mainText=" vertex="1" parent="Pn1cmBC6gLqoA6BlD7dc-1">
          <mxGeometry x="240" y="270" width="490" height="30" as="geometry" />
        </mxCell>
        <mxCell id="Pn1cmBC6gLqoA6BlD7dc-10" value="Line 1" style="strokeWidth=1;shadow=0;dashed=0;align=center;html=1;shape=mxgraph.mockup.text.textBox;fontColor=#666666;align=left;fontSize=17;spacingLeft=4;spacingTop=-3;whiteSpace=wrap;strokeColor=#666666;mainText=" vertex="1" parent="Pn1cmBC6gLqoA6BlD7dc-1">
          <mxGeometry x="240" y="390" width="490" height="30" as="geometry" />
        </mxCell>
        <mxCell id="Pn1cmBC6gLqoA6BlD7dc-12" value="Product ID:" style="text;html=1;align=center;verticalAlign=middle;whiteSpace=wrap;rounded=0;" vertex="1" parent="Pn1cmBC6gLqoA6BlD7dc-1">
          <mxGeometry x="235" y="180" width="100" height="30" as="geometry" />
        </mxCell>
        <mxCell id="Pn1cmBC6gLqoA6BlD7dc-13" value="Product Name:" style="text;html=1;align=center;verticalAlign=middle;whiteSpace=wrap;rounded=0;" vertex="1" parent="Pn1cmBC6gLqoA6BlD7dc-1">
          <mxGeometry x="240" y="240" width="100" height="30" as="geometry" />
        </mxCell>
        <mxCell id="Pn1cmBC6gLqoA6BlD7dc-14" value="Price:" style="text;html=1;align=center;verticalAlign=middle;whiteSpace=wrap;rounded=0;" vertex="1" parent="Pn1cmBC6gLqoA6BlD7dc-1">
          <mxGeometry x="240" y="300" width="90" height="30" as="geometry" />
        </mxCell>
        <mxCell id="Pn1cmBC6gLqoA6BlD7dc-15" value="Line 1" style="strokeWidth=1;shadow=0;dashed=0;align=center;html=1;shape=mxgraph.mockup.text.textBox;fontColor=#666666;align=left;fontSize=17;spacingLeft=4;spacingTop=-3;whiteSpace=wrap;strokeColor=#666666;mainText=" vertex="1" parent="Pn1cmBC6gLqoA6BlD7dc-1">
          <mxGeometry x="240" y="450" width="490" height="30" as="geometry" />
        </mxCell>
        <mxCell id="Pn1cmBC6gLqoA6BlD7dc-16" value="Image" style="text;html=1;align=center;verticalAlign=middle;whiteSpace=wrap;rounded=0;" vertex="1" parent="Pn1cmBC6gLqoA6BlD7dc-1">
          <mxGeometry x="240" y="360" width="90" height="30" as="geometry" />
        </mxCell>
        <mxCell id="Pn1cmBC6gLqoA6BlD7dc-17" value="Quantity:" style="text;html=1;align=center;verticalAlign=middle;whiteSpace=wrap;rounded=0;" vertex="1" parent="Pn1cmBC6gLqoA6BlD7dc-1">
          <mxGeometry x="240" y="420" width="90" height="30" as="geometry" />
        </mxCell>
        <mxCell id="Pn1cmBC6gLqoA6BlD7dc-18" value="Add" style="strokeWidth=1;shadow=0;dashed=0;align=center;html=1;shape=mxgraph.mockup.buttons.button;strokeColor=#666666;fontColor=#ffffff;mainText=;buttonStyle=round;fontSize=17;fontStyle=1;fillColor=#008cff;whiteSpace=wrap;" vertex="1" parent="Pn1cmBC6gLqoA6BlD7dc-1">
          <mxGeometry x="240" y="490" width="490" height="40" as="geometry" />
        </mxCell>
        <mxCell id="Pn1cmBC6gLqoA6BlD7dc-19" value="Update" style="strokeWidth=1;shadow=0;dashed=0;align=center;html=1;shape=mxgraph.mockup.buttons.button;strokeColor=#666666;fontColor=#ffffff;mainText=;buttonStyle=round;fontSize=17;fontStyle=1;fillColor=#008cff;whiteSpace=wrap;" vertex="1" parent="Pn1cmBC6gLqoA6BlD7dc-1">
          <mxGeometry x="240" y="540" width="490" height="40" as="geometry" />
        </mxCell>
        <mxCell id="Pn1cmBC6gLqoA6BlD7dc-20" value="" style="rounded=0;whiteSpace=wrap;html=1;" vertex="1" parent="Pn1cmBC6gLqoA6BlD7dc-1">
          <mxGeometry x="90" y="660" width="800" height="60" as="geometry" />
        </mxCell>
        <mxCell id="Pn1cmBC6gLqoA6BlD7dc-21" value="Product list:" style="text;html=1;align=center;verticalAlign=middle;whiteSpace=wrap;rounded=0;" vertex="1" parent="Pn1cmBC6gLqoA6BlD7dc-1">
          <mxGeometry x="90" y="620" width="100" height="40" as="geometry" />
        </mxCell>
      </root>
    </mxGraphModel>
  </diagram>
  <diagram id="bok-sWWIlnlZ_oNCs_i2" name="Page-2">
    <mxGraphModel dx="1339" dy="815" grid="1" gridSize="10" guides="1" tooltips="1" connect="1" arrows="1" fold="1" page="1" pageScale="1" pageWidth="850" pageHeight="1100" math="0" shadow="0">
      <root>
        <mxCell id="0" />
        <mxCell id="1" parent="0" />
        <mxCell id="mqmn-9pY4f4E6HqWmVWy-1" value="" style="strokeWidth=1;shadow=0;dashed=0;align=center;html=1;shape=mxgraph.mockup.containers.browserWindow;rSize=0;strokeColor=#666666;strokeColor2=#008cff;strokeColor3=#c4c4c4;mainText=,;recursiveResize=0;" vertex="1" parent="1">
          <mxGeometry x="90" y="220" width="700" height="550" as="geometry" />
        </mxCell>
        <mxCell id="mqmn-9pY4f4E6HqWmVWy-2" value="Page 1" style="strokeWidth=1;shadow=0;dashed=0;align=center;html=1;shape=mxgraph.mockup.containers.anchor;fontSize=17;fontColor=#666666;align=left;whiteSpace=wrap;" vertex="1" parent="mqmn-9pY4f4E6HqWmVWy-1">
          <mxGeometry x="60" y="12" width="110" height="26" as="geometry" />
        </mxCell>
        <mxCell id="mqmn-9pY4f4E6HqWmVWy-3" value="https://www.draw.io" style="strokeWidth=1;shadow=0;dashed=0;align=center;html=1;shape=mxgraph.mockup.containers.anchor;rSize=0;fontSize=17;fontColor=#666666;align=left;" vertex="1" parent="mqmn-9pY4f4E6HqWmVWy-1">
          <mxGeometry x="130" y="60" width="250" height="26" as="geometry" />
        </mxCell>
        <mxCell id="mqmn-9pY4f4E6HqWmVWy-4" value="" style="rounded=0;whiteSpace=wrap;html=1;" vertex="1" parent="mqmn-9pY4f4E6HqWmVWy-1">
          <mxGeometry x="50" y="160" width="120" height="150" as="geometry" />
        </mxCell>
        <mxCell id="mqmn-9pY4f4E6HqWmVWy-6" value="" style="rounded=0;whiteSpace=wrap;html=1;" vertex="1" parent="mqmn-9pY4f4E6HqWmVWy-1">
          <mxGeometry x="520" y="160" width="120" height="150" as="geometry" />
        </mxCell>
        <mxCell id="mqmn-9pY4f4E6HqWmVWy-5" value="" style="rounded=0;whiteSpace=wrap;html=1;" vertex="1" parent="mqmn-9pY4f4E6HqWmVWy-1">
          <mxGeometry x="290" y="160" width="120" height="150" as="geometry" />
        </mxCell>
        <mxCell id="mqmn-9pY4f4E6HqWmVWy-7" value="" style="rounded=0;whiteSpace=wrap;html=1;" vertex="1" parent="mqmn-9pY4f4E6HqWmVWy-1">
          <mxGeometry x="290" y="380" width="120" height="150" as="geometry" />
        </mxCell>
        <mxCell id="mqmn-9pY4f4E6HqWmVWy-9" value="Product 2" style="text;html=1;align=center;verticalAlign=middle;whiteSpace=wrap;rounded=0;" vertex="1" parent="mqmn-9pY4f4E6HqWmVWy-1">
          <mxGeometry x="320" y="240" width="60" height="30" as="geometry" />
        </mxCell>
        <mxCell id="mqmn-9pY4f4E6HqWmVWy-8" value="Product 1" style="text;html=1;align=center;verticalAlign=middle;whiteSpace=wrap;rounded=0;" vertex="1" parent="mqmn-9pY4f4E6HqWmVWy-1">
          <mxGeometry x="80" y="240" width="60" height="30" as="geometry" />
        </mxCell>
        <mxCell id="mqmn-9pY4f4E6HqWmVWy-20" value="Product 4" style="text;html=1;align=center;verticalAlign=middle;whiteSpace=wrap;rounded=0;" vertex="1" parent="mqmn-9pY4f4E6HqWmVWy-1">
          <mxGeometry x="320" y="460" width="60" height="30" as="geometry" />
        </mxCell>
        <mxCell id="mqmn-9pY4f4E6HqWmVWy-19" value="Product 3" style="text;html=1;align=center;verticalAlign=middle;whiteSpace=wrap;rounded=0;" vertex="1" parent="mqmn-9pY4f4E6HqWmVWy-1">
          <mxGeometry x="550" y="240" width="60" height="30" as="geometry" />
        </mxCell>
        <mxCell id="mqmn-9pY4f4E6HqWmVWy-21" value="&lt;font style=&quot;font-size: 13px;&quot;&gt;Your cart&lt;/font&gt;" style="text;html=1;align=center;verticalAlign=middle;whiteSpace=wrap;rounded=0;" vertex="1" parent="mqmn-9pY4f4E6HqWmVWy-1">
          <mxGeometry x="295" y="330" width="110" height="60" as="geometry" />
        </mxCell>
        <mxCell id="mqmn-9pY4f4E6HqWmVWy-22" value="Product list" style="text;html=1;align=center;verticalAlign=middle;whiteSpace=wrap;rounded=0;" vertex="1" parent="mqmn-9pY4f4E6HqWmVWy-1">
          <mxGeometry x="295" y="120" width="110" height="30" as="geometry" />
        </mxCell>
      </root>
    </mxGraphModel>
  </diagram>
  <diagram name="Page-1" id="RS54t1QEL3yaIAfK-jIc">
    <mxGraphModel grid="1" page="1" gridSize="10" guides="1" tooltips="1" connect="1" arrows="1" fold="1" pageScale="1" pageWidth="850" pageHeight="1100" math="0" shadow="0">
      <root>
        <mxCell id="0" />
        <mxCell id="1" parent="0" />
        <mxCell id="wB6HAqRGLL_yjEWUILM6-1" value="" style="strokeWidth=1;shadow=0;dashed=0;align=center;html=1;shape=mxgraph.mockup.containers.browserWindow;rSize=0;strokeColor=#666666;strokeColor2=#008cff;strokeColor3=#c4c4c4;mainText=,;recursiveResize=0;" vertex="1" parent="1">
          <mxGeometry x="70" y="240" width="740" height="510" as="geometry" />
        </mxCell>
        <mxCell id="wB6HAqRGLL_yjEWUILM6-2" value="Page 1" style="strokeWidth=1;shadow=0;dashed=0;align=center;html=1;shape=mxgraph.mockup.containers.anchor;fontSize=17;fontColor=#666666;align=left;whiteSpace=wrap;" vertex="1" parent="wB6HAqRGLL_yjEWUILM6-1">
          <mxGeometry x="60" y="12" width="110" height="26" as="geometry" />
        </mxCell>
        <mxCell id="wB6HAqRGLL_yjEWUILM6-3" value="https://www.draw.io" style="strokeWidth=1;shadow=0;dashed=0;align=center;html=1;shape=mxgraph.mockup.containers.anchor;rSize=0;fontSize=17;fontColor=#666666;align=left;" vertex="1" parent="wB6HAqRGLL_yjEWUILM6-1">
          <mxGeometry x="130" y="60" width="250" height="26" as="geometry" />
        </mxCell>
        <mxCell id="wB6HAqRGLL_yjEWUILM6-4" value="" style="strokeWidth=1;shadow=0;dashed=0;align=center;html=1;shape=mxgraph.mockup.forms.rrect;rSize=0;strokeColor=#999999;fillColor=#ffffff;" vertex="1" parent="wB6HAqRGLL_yjEWUILM6-1">
          <mxGeometry x="270" y="150" width="200" height="300" as="geometry" />
        </mxCell>
        <mxCell id="wB6HAqRGLL_yjEWUILM6-5" value="Sign In" style="strokeWidth=1;shadow=0;dashed=0;align=center;html=1;shape=mxgraph.mockup.forms.anchor;fontSize=12;fontColor=#666666;align=left;resizeWidth=1;spacingLeft=0;" vertex="1" parent="wB6HAqRGLL_yjEWUILM6-4">
          <mxGeometry width="100" height="20" relative="1" as="geometry">
            <mxPoint x="10" y="10" as="offset" />
          </mxGeometry>
        </mxCell>
        <mxCell id="wB6HAqRGLL_yjEWUILM6-6" value="" style="shape=line;strokeColor=#ddeeff;strokeWidth=2;html=1;resizeWidth=1;" vertex="1" parent="wB6HAqRGLL_yjEWUILM6-4">
          <mxGeometry width="180" height="10" relative="1" as="geometry">
            <mxPoint x="10" y="30" as="offset" />
          </mxGeometry>
        </mxCell>
        <mxCell id="wB6HAqRGLL_yjEWUILM6-7" value="User Name:" style="strokeWidth=1;shadow=0;dashed=0;align=center;html=1;shape=mxgraph.mockup.forms.anchor;fontSize=12;fontColor=#666666;align=left;resizeWidth=1;spacingLeft=0;" vertex="1" parent="wB6HAqRGLL_yjEWUILM6-4">
          <mxGeometry width="100" height="20" relative="1" as="geometry">
            <mxPoint x="10" y="40" as="offset" />
          </mxGeometry>
        </mxCell>
        <mxCell id="wB6HAqRGLL_yjEWUILM6-8" value="johndoe" style="strokeWidth=1;shadow=0;dashed=0;align=center;html=1;shape=mxgraph.mockup.forms.rrect;rSize=0;strokeColor=#999999;fontColor=#666666;align=left;spacingLeft=5;resizeWidth=1;" vertex="1" parent="wB6HAqRGLL_yjEWUILM6-4">
          <mxGeometry width="150" height="25" relative="1" as="geometry">
            <mxPoint x="10" y="60" as="offset" />
          </mxGeometry>
        </mxCell>
        <mxCell id="wB6HAqRGLL_yjEWUILM6-9" value="Password:" style="strokeWidth=1;shadow=0;dashed=0;align=center;html=1;shape=mxgraph.mockup.forms.anchor;fontSize=12;fontColor=#666666;align=left;resizeWidth=1;spacingLeft=0;" vertex="1" parent="wB6HAqRGLL_yjEWUILM6-4">
          <mxGeometry width="100" height="20" relative="1" as="geometry">
            <mxPoint x="10" y="95" as="offset" />
          </mxGeometry>
        </mxCell>
        <mxCell id="wB6HAqRGLL_yjEWUILM6-10" value="********" style="strokeWidth=1;shadow=0;dashed=0;align=center;html=1;shape=mxgraph.mockup.forms.rrect;rSize=0;strokeColor=#999999;fontColor=#666666;align=left;spacingLeft=5;resizeWidth=1;" vertex="1" parent="wB6HAqRGLL_yjEWUILM6-4">
          <mxGeometry width="150" height="25" relative="1" as="geometry">
            <mxPoint x="10" y="115" as="offset" />
          </mxGeometry>
        </mxCell>
        <mxCell id="wB6HAqRGLL_yjEWUILM6-11" value="SIGN IN" style="strokeWidth=1;shadow=0;dashed=0;align=center;html=1;shape=mxgraph.mockup.forms.rrect;rSize=5;strokeColor=none;fontColor=#ffffff;fillColor=#66bbff;fontSize=16;fontStyle=1;" vertex="1" parent="wB6HAqRGLL_yjEWUILM6-4">
          <mxGeometry y="1" width="80" height="30" relative="1" as="geometry">
            <mxPoint x="20" y="-150" as="offset" />
          </mxGeometry>
        </mxCell>
        <mxCell id="wB6HAqRGLL_yjEWUILM6-12" value="Forgot Password?" style="strokeWidth=1;shadow=0;dashed=0;align=center;html=1;shape=mxgraph.mockup.forms.anchor;fontSize=12;fontColor=#9999ff;align=left;spacingLeft=0;fontStyle=4;resizeWidth=1;" vertex="1" parent="wB6HAqRGLL_yjEWUILM6-4">
          <mxGeometry y="1" width="150" height="20" relative="1" as="geometry">
            <mxPoint x="10" y="-110" as="offset" />
          </mxGeometry>
        </mxCell>
        <mxCell id="wB6HAqRGLL_yjEWUILM6-13" value="" style="shape=line;strokeColor=#ddeeff;strokeWidth=2;html=1;resizeWidth=1;" vertex="1" parent="wB6HAqRGLL_yjEWUILM6-4">
          <mxGeometry y="1" width="180" height="10" relative="1" as="geometry">
            <mxPoint x="10" y="-90" as="offset" />
          </mxGeometry>
        </mxCell>
        <mxCell id="wB6HAqRGLL_yjEWUILM6-14" value="New User" style="strokeWidth=1;shadow=0;dashed=0;align=center;html=1;shape=mxgraph.mockup.forms.anchor;fontSize=12;fontColor=#666666;align=left;spacingLeft=0;resizeWidth=1;" vertex="1" parent="wB6HAqRGLL_yjEWUILM6-4">
          <mxGeometry y="1" width="150" height="20" relative="1" as="geometry">
            <mxPoint x="10" y="-70" as="offset" />
          </mxGeometry>
        </mxCell>
        <mxCell id="wB6HAqRGLL_yjEWUILM6-15" value="SIGN UP" style="strokeWidth=1;shadow=0;dashed=0;align=center;html=1;shape=mxgraph.mockup.forms.rrect;rSize=5;strokeColor=none;fontColor=#ffffff;fillColor=#66bbff;fontSize=16;fontStyle=1;" vertex="1" parent="wB6HAqRGLL_yjEWUILM6-4">
          <mxGeometry y="1" width="80" height="30" relative="1" as="geometry">
            <mxPoint x="20" y="-50" as="offset" />
          </mxGeometry>
        </mxCell>
      </root>
    </mxGraphModel>
  </diagram>
</mxfile>
